<?xml version="1.0" encoding="utf-8"?>
<svg version="1.1" xmlns:xlink="http://www.w3.org/1999/xlink" width="12px" height="11px" xmlns="http://www.w3.org/2000/svg">
  <g transform="matrix(1 0 0 1 -451 -259 )">
    <path d="M 11.8515625 8.96328125000001  C 11.9505208333334 9.07213541666666  12 9.20104166666665  12 9.35  L 12 10.45  C 12 10.5989583333333  11.9505208333334 10.7278645833333  11.8515625 10.83671875  C 11.7526041666666 10.9455729166667  11.6354166666666 11  11.5 11  L 0.5 11  C 0.364583333333371 11  0.247395833333371 10.9455729166667  0.1484375 10.83671875  C 0.0494791666666288 10.7278645833333  0 10.5989583333333  0 10.45  L 0 9.35  C 0 9.20104166666665  0.0494791666666288 9.07213541666666  0.1484375 8.96328125000001  C 0.247395833333371 8.85442708333335  0.364583333333371 8.79999999999999  0.5 8.79999999999999  L 11.5 8.79999999999999  C 11.6354166666666 8.79999999999999  11.7526041666666 8.85442708333335  11.8515625 8.96328125000001  Z M 11.8515625 4.56328125000001  C 11.9505208333334 4.67213541666667  12 4.80104166666666  12 4.95  L 12 6.05  C 12 6.19895833333334  11.9505208333334 6.32786458333333  11.8515625 6.43671874999999  C 11.7526041666666 6.54557291666668  11.6354166666666 6.60000000000001  11.5 6.60000000000001  L 0.5 6.60000000000001  C 0.364583333333371 6.60000000000001  0.247395833333371 6.54557291666668  0.1484375 6.43671874999999  C 0.0494791666666288 6.32786458333333  0 6.19895833333334  0 6.05  L 0 4.95  C 0 4.80104166666666  0.0494791666666288 4.67213541666667  0.1484375 4.56328125000001  C 0.247395833333371 4.45442708333332  0.364583333333371 4.39999999999999  0.5 4.39999999999999  L 11.5 4.39999999999999  C 11.6354166666666 4.39999999999999  11.7526041666666 4.45442708333332  11.8515625 4.56328125000001  Z M 11.8515625 0.163281250000017  C 11.9505208333334 0.272135416666675  12 0.401041666666662  12 0.549999999999981  L 12 1.65  C 12 1.79895833333335  11.9505208333334 1.92786458333334  11.8515625 2.03671875  C 11.7526041666666 2.14557291666665  11.6354166666666 2.20000000000001  11.5 2.20000000000001  L 0.5 2.20000000000001  C 0.364583333333371 2.20000000000001  0.247395833333371 2.14557291666665  0.1484375 2.03671875  C 0.0494791666666288 1.92786458333334  0 1.79895833333335  0 1.65  L 0 0.549999999999981  C 0 0.401041666666662  0.0494791666666288 0.272135416666675  0.1484375 0.163281250000017  C 0.247395833333371 0.0544270833333289  0.364583333333371 0  0.5 0  L 11.5 0  C 11.6354166666666 0  11.7526041666666 0.0544270833333289  11.8515625 0.163281250000017  Z " fill-rule="nonzero" fill="#999999" stroke="none" transform="matrix(1 0 0 1 451 259 )" />
  </g>
</svg>