<?xml version="1.0" encoding="utf-8"?>
<svg version="1.1" xmlns:xlink="http://www.w3.org/1999/xlink" width="12px" height="12px" viewBox="182 120  12 12" xmlns="http://www.w3.org/2000/svg">
  <path d="M 188 120  C 191.36 120  194 122.64  194 126  C 194 129.36  191.36 132  188 132  C 184.64 132  182 129.36  182 126  C 182 122.64  184.64 120  188 120  Z " fill-rule="nonzero" fill="#ffffff" stroke="none" />
  <path d="M 188 120.5  C 191.08 120.5  193.5 122.92  193.5 126  C 193.5 129.08  191.08 131.5  188 131.5  C 184.92 131.5  182.5 129.08  182.5 126  C 182.5 122.92  184.92 120.5  188 120.5  Z " stroke-width="1" stroke="#797979" fill="none" />
  <path d="M 188 129  C 186.32 129  185 127.68  185 126  C 185 124.32  186.32 123  188 123  C 189.68 123  191 124.32  191 126  C 191 127.68  189.68 129  188 129  " fill-rule="nonzero" fill="#797979" stroke="none" />
</svg>