<?xml version="1.0" encoding="utf-8"?>
<svg version="1.1" xmlns:xlink="http://www.w3.org/1999/xlink" width="12px" height="12px" viewBox="259 335  12 12" xmlns="http://www.w3.org/2000/svg">
  <path d="M 265 335  C 268.36 335  271 337.64  271 341  C 271 344.36  268.36 347  265 347  C 261.64 347  259 344.36  259 341  C 259 337.64  261.64 335  265 335  Z " fill-rule="nonzero" fill="#ffffff" stroke="none" />
  <path d="M 265 335.5  C 268.08 335.5  270.5 337.92  270.5 341  C 270.5 344.08  268.08 346.5  265 346.5  C 261.92 346.5  259.5 344.08  259.5 341  C 259.5 337.92  261.92 335.5  265 335.5  Z " stroke-width="1" stroke="#797979" fill="none" />
  <path d="M 265 344  C 263.32 344  262 342.68  262 341  C 262 339.32  263.32 338  265 338  C 266.68 338  268 339.32  268 341  C 268 342.68  266.68 344  265 344  " fill-rule="nonzero" fill="#797979" stroke="none" />
</svg>