<?xml version="1.0" encoding="utf-8"?>
<svg version="1.1" xmlns:xlink="http://www.w3.org/1999/xlink" width="12px" height="12px" viewBox="113 335  12 12" xmlns="http://www.w3.org/2000/svg">
  <path d="M 119 335  C 122.36 335  125 337.64  125 341  C 125 344.36  122.36 347  119 347  C 115.64 347  113 344.36  113 341  C 113 337.64  115.64 335  119 335  Z " fill-rule="nonzero" fill="#ffffff" stroke="none" />
  <path d="M 119 335.5  C 122.08 335.5  124.5 337.92  124.5 341  C 124.5 344.08  122.08 346.5  119 346.5  C 115.92 346.5  113.5 344.08  113.5 341  C 113.5 337.92  115.92 335.5  119 335.5  Z " stroke-width="1" stroke="#797979" fill="none" />
  <path d="M 119 344  C 117.32 344  116 342.68  116 341  C 116 339.32  117.32 338  119 338  C 120.68 338  122 339.32  122 341  C 122 342.68  120.68 344  119 344  " fill-rule="nonzero" fill="#797979" stroke="none" />
</svg>