<?xml version="1.0" encoding="utf-8"?>
<svg version="1.1" xmlns:xlink="http://www.w3.org/1999/xlink" width="112px" height="22px" xmlns="http://www.w3.org/2000/svg">
  <defs>
    <mask fill="white" id="clip95">
      <path d="M 0 12  L 0 10  C 0 4.39999999999998  7.04000000000014 0  16 0  L 51.716129032258 0  L 62.0387096774193 0  L 96 0  C 104.96 0  112 4.39999999999998  112 10  L 112 12  C 112 17.6  104.96 22  96 22  L 88.8774193548426 22  L 47.5870967741972 22  L 16 22  C 7.04000000000014 22  0 17.6  0 12  Z " fill-rule="evenodd" />
    </mask>
  </defs>
  <g transform="matrix(1 0 0 1 -1100 -470 )">
    <path d="M 0 12  L 0 10  C 0 4.39999999999998  7.04000000000014 0  16 0  L 51.716129032258 0  L 62.0387096774193 0  L 96 0  C 104.96 0  112 4.39999999999998  112 10  L 112 12  C 112 17.6  104.96 22  96 22  L 88.8774193548426 22  L 47.5870967741972 22  L 16 22  C 7.04000000000014 22  0 17.6  0 12  Z " fill-rule="nonzero" fill="#ffffff" stroke="none" fill-opacity="0" transform="matrix(1 0 0 1 1100 470 )" />
    <path d="M 0 12  L 0 10  C 0 4.39999999999998  7.04000000000014 0  16 0  L 51.716129032258 0  L 62.0387096774193 0  L 96 0  C 104.96 0  112 4.39999999999998  112 10  L 112 12  C 112 17.6  104.96 22  96 22  L 88.8774193548426 22  L 47.5870967741972 22  L 16 22  C 7.04000000000014 22  0 17.6  0 12  Z " stroke-width="2" stroke="#aaaaaa" fill="none" transform="matrix(1 0 0 1 1100 470 )" mask="url(#clip95)" />
  </g>
</svg>