<?xml version="1.0" encoding="utf-8"?>
<svg version="1.1" xmlns:xlink="http://www.w3.org/1999/xlink" width="80px" height="22px" xmlns="http://www.w3.org/2000/svg">
  <defs>
    <mask fill="white" id="clip96">
      <path d="M 0 12  L 0 10  C 0 4.39999999999998  5.02857142857157 0  11.4285714285714 0  L 36.9400921658985 0  L 44.3133640552995 0  L 56.2672811059921 0  L 68.5714285714286 0  C 74.9714285714284 0  80 4.39999999999998  80 10  L 80 12  C 80 17.6  74.9714285714284 22  68.5714285714286 22  L 63.4838709677448 22  L 41.520737327189 22  L 33.9907834101408 22  L 11.4285714285714 22  C 5.02857142857157 22  0 17.6  0 12  Z " fill-rule="evenodd" />
    </mask>
  </defs>
  <g transform="matrix(1 0 0 1 -1132 -684 )">
    <path d="M 0 12  L 0 10  C 0 4.39999999999998  5.02857142857157 0  11.4285714285714 0  L 36.9400921658985 0  L 44.3133640552995 0  L 56.2672811059921 0  L 68.5714285714286 0  C 74.9714285714284 0  80 4.39999999999998  80 10  L 80 12  C 80 17.6  74.9714285714284 22  68.5714285714286 22  L 63.4838709677448 22  L 41.520737327189 22  L 33.9907834101408 22  L 11.4285714285714 22  C 5.02857142857157 22  0 17.6  0 12  Z " fill-rule="nonzero" fill="#ffffff" stroke="none" fill-opacity="0" transform="matrix(1 0 0 1 1132 684 )" />
    <path d="M 0 12  L 0 10  C 0 4.39999999999998  5.02857142857157 0  11.4285714285714 0  L 36.9400921658985 0  L 44.3133640552995 0  L 56.2672811059921 0  L 68.5714285714286 0  C 74.9714285714284 0  80 4.39999999999998  80 10  L 80 12  C 80 17.6  74.9714285714284 22  68.5714285714286 22  L 63.4838709677448 22  L 41.520737327189 22  L 33.9907834101408 22  L 11.4285714285714 22  C 5.02857142857157 22  0 17.6  0 12  Z " stroke-width="2" stroke="#aaaaaa" fill="none" transform="matrix(1 0 0 1 1132 684 )" mask="url(#clip96)" />
  </g>
</svg>