<?xml version="1.0" encoding="utf-8"?>
<svg version="1.1" xmlns:xlink="http://www.w3.org/1999/xlink" width="96px" height="22px" xmlns="http://www.w3.org/2000/svg">
  <defs>
    <mask fill="white" id="clip97">
      <path d="M 0 12  L 0 10  C 0 4.39999999999998  6.03428571428584 0  13.7142857142857 0  L 44.3281105990783 0  L 53.1760368663594 0  L 82.2857142857143 0  C 89.9657142857142 0  96 4.39999999999998  96 10  L 96 12  C 96 17.6  89.9657142857142 22  82.2857142857143 22  L 76.1806451612937 22  L 40.788940092169 22  L 13.7142857142857 22  C 6.03428571428584 22  0 17.6  0 12  Z " fill-rule="evenodd" />
    </mask>
  </defs>
  <g transform="matrix(1 0 0 1 -1116 -256 )">
    <path d="M 0 12  L 0 10  C 0 4.39999999999998  6.03428571428584 0  13.7142857142857 0  L 44.3281105990783 0  L 53.1760368663594 0  L 82.2857142857143 0  C 89.9657142857142 0  96 4.39999999999998  96 10  L 96 12  C 96 17.6  89.9657142857142 22  82.2857142857143 22  L 76.1806451612937 22  L 40.788940092169 22  L 13.7142857142857 22  C 6.03428571428584 22  0 17.6  0 12  Z " fill-rule="nonzero" fill="#ffffff" stroke="none" fill-opacity="0" transform="matrix(1 0 0 1 1116 256 )" />
    <path d="M 0 12  L 0 10  C 0 4.39999999999998  6.03428571428584 0  13.7142857142857 0  L 44.3281105990783 0  L 53.1760368663594 0  L 82.2857142857143 0  C 89.9657142857142 0  96 4.39999999999998  96 10  L 96 12  C 96 17.6  89.9657142857142 22  82.2857142857143 22  L 76.1806451612937 22  L 40.788940092169 22  L 13.7142857142857 22  C 6.03428571428584 22  0 17.6  0 12  Z " stroke-width="2" stroke="#aaaaaa" fill="none" transform="matrix(1 0 0 1 1116 256 )" mask="url(#clip97)" />
  </g>
</svg>