<?xml version="1.0" encoding="utf-8"?>
<svg version="1.1" xmlns:xlink="http://www.w3.org/1999/xlink" width="12px" height="12px" viewBox="195 171  12 12" xmlns="http://www.w3.org/2000/svg">
  <path d="M 201 171  C 204.36 171  207 173.64  207 177  C 207 180.36  204.36 183  201 183  C 197.64 183  195 180.36  195 177  C 195 173.64  197.64 171  201 171  Z " fill-rule="nonzero" fill="#ffffff" stroke="none" />
  <path d="M 201 171.5  C 204.08 171.5  206.5 173.92  206.5 177  C 206.5 180.08  204.08 182.5  201 182.5  C 197.92 182.5  195.5 180.08  195.5 177  C 195.5 173.92  197.92 171.5  201 171.5  Z " stroke-width="1" stroke="#797979" fill="none" />
  <path d="M 201 180  C 199.32 180  198 178.68  198 177  C 198 175.32  199.32 174  201 174  C 202.68 174  204 175.32  204 177  C 204 178.68  202.68 180  201 180  " fill-rule="nonzero" fill="#797979" stroke="none" />
</svg>