<?xml version="1.0" encoding="utf-8"?>
<svg version="1.1" xmlns:xlink="http://www.w3.org/1999/xlink" width="12px" height="12px" viewBox="113 120  12 12" xmlns="http://www.w3.org/2000/svg">
  <path d="M 119 120  C 122.36 120  125 122.64  125 126  C 125 129.36  122.36 132  119 132  C 115.64 132  113 129.36  113 126  C 113 122.64  115.64 120  119 120  Z " fill-rule="nonzero" fill="#ffffff" stroke="none" />
  <path d="M 119 120.5  C 122.08 120.5  124.5 122.92  124.5 126  C 124.5 129.08  122.08 131.5  119 131.5  C 115.92 131.5  113.5 129.08  113.5 126  C 113.5 122.92  115.92 120.5  119 120.5  Z " stroke-width="1" stroke="#797979" fill="none" />
  <path d="M 119 129  C 117.32 129  116 127.68  116 126  C 116 124.32  117.32 123  119 123  C 120.68 123  122 124.32  122 126  C 122 127.68  120.68 129  119 129  " fill-rule="nonzero" fill="#797979" stroke="none" />
</svg>