<?xml version="1.0" encoding="utf-8"?>
<svg version="1.1" xmlns:xlink="http://www.w3.org/1999/xlink" width="12px" height="12px" viewBox="189 120  12 12" xmlns="http://www.w3.org/2000/svg">
  <path d="M 195 120  C 198.36 120  201 122.64  201 126  C 201 129.36  198.36 132  195 132  C 191.64 132  189 129.36  189 126  C 189 122.64  191.64 120  195 120  Z " fill-rule="nonzero" fill="#ffffff" stroke="none" />
  <path d="M 195 120.5  C 198.08 120.5  200.5 122.92  200.5 126  C 200.5 129.08  198.08 131.5  195 131.5  C 191.92 131.5  189.5 129.08  189.5 126  C 189.5 122.92  191.92 120.5  195 120.5  Z " stroke-width="1" stroke="#797979" fill="none" />
  <path d="M 195 129  C 193.32 129  192 127.68  192 126  C 192 124.32  193.32 123  195 123  C 196.68 123  198 124.32  198 126  C 198 127.68  196.68 129  195 129  " fill-rule="nonzero" fill="#797979" stroke="none" />
</svg>