<?xml version="1.0" encoding="utf-8"?>
<svg version="1.1" xmlns:xlink="http://www.w3.org/1999/xlink" width="12px" height="12px" viewBox="264 120  12 12" xmlns="http://www.w3.org/2000/svg">
  <path d="M 270 120  C 273.36 120  276 122.64  276 126  C 276 129.36  273.36 132  270 132  C 266.64 132  264 129.36  264 126  C 264 122.64  266.64 120  270 120  Z " fill-rule="nonzero" fill="#ffffff" stroke="none" />
  <path d="M 270 120.5  C 273.08 120.5  275.5 122.92  275.5 126  C 275.5 129.08  273.08 131.5  270 131.5  C 266.92 131.5  264.5 129.08  264.5 126  C 264.5 122.92  266.92 120.5  270 120.5  Z " stroke-width="1" stroke="#797979" fill="none" />
  <path d="M 270 129  C 268.32 129  267 127.68  267 126  C 267 124.32  268.32 123  270 123  C 271.68 123  273 124.32  273 126  C 273 127.68  271.68 129  270 129  " fill-rule="nonzero" fill="#797979" stroke="none" />
</svg>