<?xml version="1.0" encoding="utf-8"?>
<svg version="1.1" xmlns:xlink="http://www.w3.org/1999/xlink" width="288px" height="28px" xmlns="http://www.w3.org/2000/svg">
  <defs>
    <mask fill="white" id="clip99">
      <path d="M 0 24  L 0 4  C 0 1.75999999999999  1.584 0  3.6 0  L 59.5451612903227 0  L 284.4 0  C 286.416 0  288 1.75999999999999  288 4  L 288 24  C 288 26.24  286.416 28  284.4 28  L 21.8903225806447 28  L 3.6 28  C 1.584 28  0 26.24  0 24  Z " fill-rule="evenodd" />
    </mask>
  </defs>
  <g transform="matrix(1 0 0 1 -111 -268 )">
    <path d="M 0 24  L 0 4  C 0 1.75999999999999  1.584 0  3.6 0  L 59.5451612903227 0  L 284.4 0  C 286.416 0  288 1.75999999999999  288 4  L 288 24  C 288 26.24  286.416 28  284.4 28  L 21.8903225806447 28  L 3.6 28  C 1.584 28  0 26.24  0 24  Z " fill-rule="nonzero" fill="#ffffff" stroke="none" transform="matrix(1 0 0 1 111 268 )" />
    <path d="M 0 24  L 0 4  C 0 1.75999999999999  1.584 0  3.6 0  L 59.5451612903227 0  L 284.4 0  C 286.416 0  288 1.75999999999999  288 4  L 288 24  C 288 26.24  286.416 28  284.4 28  L 21.8903225806447 28  L 3.6 28  C 1.584 28  0 26.24  0 24  Z " stroke-width="2" stroke="#d9d9d9" fill="none" transform="matrix(1 0 0 1 111 268 )" mask="url(#clip99)" />
  </g>
</svg>