<?xml version="1.0" encoding="utf-8"?>
<svg version="1.1" xmlns:xlink="http://www.w3.org/1999/xlink" width="10px" height="10px" xmlns="http://www.w3.org/2000/svg">
  <g transform="matrix(1 0 0 1 -979 -227 )">
    <path d="M 984 227  C 986.8 227  989 229.2  989 232  C 989 234.8  986.8 237  984 237  C 981.2 237  979 234.8  979 232  C 979 229.2  981.2 227  984 227  Z " fill-rule="nonzero" fill="#1e8e76" stroke="none" />
    <path d="M 984 227.5  C 986.52 227.5  988.5 229.48  988.5 232  C 988.5 234.52  986.52 236.5  984 236.5  C 981.48 236.5  979.5 234.52  979.5 232  C 979.5 229.48  981.48 227.5  984 227.5  Z " stroke-width="1" stroke="#1e8e76" fill="none" />
  </g>
</svg>