<?xml version="1.0" encoding="utf-8"?>
<svg version="1.1" xmlns:xlink="http://www.w3.org/1999/xlink" width="320px" height="28px" xmlns="http://www.w3.org/2000/svg">
  <g transform="matrix(1 0 0 1 -566 -3 )">
    <path d="M 567 7  A 3 3 0 0 1 570 4 L 882 4  A 3 3 0 0 1 885 7 L 885 27  A 3 3 0 0 1 882 30 L 570 30  A 3 3 0 0 1 567 27 L 567 7  Z " fill-rule="nonzero" fill="#ffffff" stroke="none" fill-opacity="0" />
    <path d="M 566.5 7  A 3.5 3.5 0 0 1 570 3.5 L 882 3.5  A 3.5 3.5 0 0 1 885.5 7 L 885.5 27  A 3.5 3.5 0 0 1 882 30.5 L 570 30.5  A 3.5 3.5 0 0 1 566.5 27 L 566.5 7  Z " stroke-width="1" stroke="#ffffff" fill="none" stroke-opacity="0.2" />
  </g>
</svg>