<?xml version="1.0" encoding="utf-8"?>
<svg version="1.1" xmlns:xlink="http://www.w3.org/1999/xlink" width="750px" height="179px" xmlns="http://www.w3.org/2000/svg">
  <g transform="matrix(1 0 0 1 -233 -749 )">
    <path d="M 748 178  L 0.139510117145932 178  C 0.139510117145932 178  1.16666666666669 145.221060324915  1.16666666666669 145.623667567597  C 12.2428522199654 145.243228342348  31.3570881302767 147.636703781011  54.5 147.636703781011  C 94.1929357472489 147.636703781011  107.667376641818 138.5  140.333333333333 138.5  C 172.999290024849 138.5  221.120512895561 104.980465489312  242.833333333333 105.166666666667  C 281.956514022009 105.502172702236  319.089989350373 0.664493964430903  357.833333333333 1  C 396.576677316295 1.3355060355691  385.922891484436 55.5685266437462  430.333333333333 61  C 455.022719204828 64.0195543201204  545.810791622293 125.1503713999  578.666666666667 127.666666666667  C 611.52254171104 130.182961933434  731.591054313099 151.66014855996  748 152.666666666667  C 748.455804046858 153.270577530691  748 178  748 178  Z " fill-rule="nonzero" fill="#00a950" stroke="none" fill-opacity="0.2" transform="matrix(1 0 0 1 233 749 )" />
  </g>
</svg>