<?xml version="1.0" encoding="utf-8"?>
<svg version="1.1" xmlns:xlink="http://www.w3.org/1999/xlink" width="7px" height="8px" xmlns="http://www.w3.org/2000/svg">
  <g transform="matrix(1 0 0 1 -591 -745 )">
    <path d="M 594.5 746  C 595.9 746  597 747.32  597 749  C 597 750.68  595.9 752  594.5 752  C 593.1 752  592 750.68  592 749  C 592 747.32  593.1 746  594.5 746  Z " fill-rule="nonzero" fill="#ffffff" stroke="none" />
    <path d="M 594.5 746  C 595.9 746  597 747.32  597 749  C 597 750.68  595.9 752  594.5 752  C 593.1 752  592 750.68  592 749  C 592 747.32  593.1 746  594.5 746  Z " stroke-width="2" stroke="#1e8e76" fill="none" />
  </g>
</svg>