<?xml version="1.0" encoding="utf-8"?>
<svg version="1.1" xmlns:xlink="http://www.w3.org/1999/xlink" width="9px" height="8px" xmlns="http://www.w3.org/2000/svg">
  <g transform="matrix(1 0 0 1 -1098 -1201 )">
    <path d="M 1102.5 1202  C 1104.46 1202  1106 1203.32  1106 1205  C 1106 1206.68  1104.46 1208  1102.5 1208  C 1100.54 1208  1099 1206.68  1099 1205  C 1099 1203.32  1100.54 1202  1102.5 1202  Z " fill-rule="nonzero" fill="#e9e9e9" stroke="none" />
    <path d="M 1102.5 1202  C 1104.46 1202  1106 1203.32  1106 1205  C 1106 1206.68  1104.46 1208  1102.5 1208  C 1100.54 1208  1099 1206.68  1099 1205  C 1099 1203.32  1100.54 1202  1102.5 1202  Z " stroke-width="2" stroke="#e9e9e9" fill="none" />
  </g>
</svg>