<?xml version="1.0" encoding="utf-8"?>
<svg version="1.1" xmlns:xlink="http://www.w3.org/1999/xlink" width="10px" height="15px" xmlns="http://www.w3.org/2000/svg">
  <g transform="matrix(1 0 0 1 -418 -259 )">
    <path d="M 9.82817869415805 7.15430861723445  C 9.94272623138608 7.25450901803606  10 7.36973947895791  10 7.5  C 10 7.63026052104209  9.94272623138608 7.74549098196394  9.82817869415805 7.84569138276555  L 1.82130584192441 14.8496993987976  C 1.70675830469645 14.9498997995992  1.57502863688433 15  1.42611683848804 15  C 1.27720504009164 15  1.14547537227952 14.9498997995992  1.03092783505156 14.8496993987976  L 0.171821305841945 14.0981963927856  C 0.0572737686139249 13.997995991984  0 13.8827655310621  0 13.7525050100201  C 0 13.622244488978  0.0572737686139249 13.5070140280561  0.171821305841945 13.4068136272545  L 6.92439862542949 7.5  L 0.171821305841945 1.59318637274549  C 0.0572737686139249 1.49298597194388  0 1.37775551102203  0 1.24749498997994  C 0 1.11723446893785  0.0572737686139249 1.002004008016  0.171821305841945 0.901803607214447  L 1.03092783505156 0.150300601202389  C 1.14547537227952 0.0501002004008342  1.27720504009164 0  1.42611683848804 0  C 1.57502863688433 0  1.70675830469645 0.0501002004008342  1.82130584192441 0.150300601202389  L 9.82817869415805 7.15430861723445  Z " fill-rule="nonzero" fill="#666666" stroke="none" transform="matrix(1 0 0 1 418 259 )" />
  </g>
</svg>